<?xml version="1.0" encoding="UTF-8"?>
<svg id="Layer_2" xmlns="http://www.w3.org/2000/svg" version="1.1" viewBox="0 0 978.19 510.03">
  <!-- Generator: Adobe Illustrator 29.8.2, SVG Export Plug-In . SVG Version: 2.1.1 Build 3)  -->
  <defs>
    <style>
      .st0 {
        fill: #171112;
      }
    </style>
  </defs>
  <path class="st0" d="M652.07,72.82c.54,6.59-2.85,12.44-8.09,15.44-3.96,2.27-6.83,6.06-7.87,10.51l-27.24,116.36c-1.8,7.68-8.65,13.11-16.53,13.11h-185.78c-7.92,0-14.8-5.48-16.56-13.21l-27.69-115.76c-1.37-5.72-5.01-10.75-10.27-13.39s-8.71-8.08-8.71-14.42c0-9.57,8.3-17.2,18.08-16.09,7.29.82,13.24,6.64,14.19,13.91.46,3.53-.22,6.87-1.71,9.72-2.91,5.53-3.47,12.02-1.13,17.81,10.07,24.98,20.04,43.74,27.87,56.69,6.27,10.39,21.8,8.73,25.69-2.76,5.98-17.69,13.46-45,19.1-82.93.9-6.09-1.38-12.27-6.17-16.14-4.02-3.24-6.45-8.38-5.97-14.05.68-7.98,7.33-14.37,15.33-14.76,9.32-.45,17.01,6.96,17.01,16.18,0,4.54-1.86,8.64-4.86,11.58-4.29,4.21-5.79,10.52-4.35,16.36,13.99,56.64,28.15,96.11,41.62,95.28,13.85-.85,34.98-32.69,45.38-98.27.95-5.98-1.07-12.13-5.62-16.12-3.79-3.32-6.02-8.39-5.43-13.94.79-7.48,6.82-13.54,14.29-14.35,9.77-1.07,18.02,6.56,18.02,16.11,0,4.98-2.25,9.44-5.78,12.41-4.62,3.88-6.7,10.01-5.85,15.97,4.64,32.71,10.2,62.97,18.03,87.2,3.72,11.51,18.99,13.8,25.96,3.91,11.41-16.2,20.67-35.04,28.19-56.02,1.87-5.23.81-10.96-2.45-15.46-1.93-2.67-3.07-5.95-3.07-9.49,0-9.23,7.71-16.65,17.04-16.18,8,.4,14.65,6.81,15.31,14.8Z"/>
  <rect class="st0" x="388.43" y="236.7" width="221.5" height="14.22" rx="7.11" ry="7.11"/>
  <g>
    <path d="M99.44,339.79c1.26.26,5.17,2.83,5.74,4.28,6.97,17.06,10.27,36.25,16.78,53.31.65,1.7,5.79,13.5,6.54,13.5,1.7,0,2.24-1.03,2.49-2.51.64-3.73.16-7.46,1.29-11.72,2.02-7.63,6.24-16.63,8.77-24.27,3.09-9.33,5.55-18.99,8.74-28.31.46-1.97,6.32-4.27,7.75-4.27h36.06c.37,0,1.71,1.51,1.5,2.49-.41,1.89-6.51,1.73-8.01,3.01-1.15.98-1.83,5.34-1.99,7.02-2.98,32.44,2.21,69.21-.02,102.11.65,7.28,2.77,3.7,7.53,3.49,2.83-.12,5.69.06,8.51,0v10.02s-60.54.9-60.54.9c-5.78,1.2-3.84-10.91-2.08-10.91h14.53v-89.59c0-1.45-1.91-8.04-4-8.51.23,5.81-.61,11.83-2.07,17.46-6.31,24.33-17.39,49.38-24.25,73.87-1.21,4.32-1.27,8.86-2.4,12.61-1.52,5.01-5.09,2.14-9.47,1.59-1.13-2.71-.64-5.72-1.34-8.49-6.69-26.59-18.05-52.37-25.33-78.8-1.34-4.88-2.17-10.18-2.28-15.25h-3c-2.11,30.36-.59,61.04-.91,91.53-.11,7.22,11.24,1.52,14.99,4.01,1.54,1.03,1.77,8.66-.7,9.44-1.04.33-8.93,1-10.89,1.13-6.01.39-21.56.92-26.82-.22-3.94-.85-4.34-3.67-3.71-7.26,1.31-7.47,14.9,0,16.01-6.03.64-29.01-.85-58.14-.05-87.14.11-3.83,3.57-18.33-1.58-19.25-1.28-.23-5.33,1.01-7.95.85-6.99-.45-5.42-4.34-5.46-10.08h47.58Z"/>
    <path d="M480.61,348.8c-.49-.51-10.96,2.8-14.09.56-1.91-1.37-3.33-10.75,1.59-10.55l32.08-.07c18.8-.04,38.12-.12,57.06,1.04,3.97.24,13.75-1.7,14.52,2.51s-.23,11.29-.05,16.06c.15,3.89,3.84,18.41-2.43,18.46-6.94.05-6.65-7.81-8.78-12.26-.71-1.48-4.11-6.48-5.24-7.78-2.11-2.42-9.05-6.97-12.06-6.97h-29.55v49.05c6.33.39,15.04-.28,19.07-5.74,2.94-3.98,2.49-16.46,9.51-16.27,1.12.03,3.48,1.94,3.48,2.49v49.05c0,.54-2.36,2.46-3.48,2.49-6.62.18-6.04-10.11-7.8-14.23-3.68-8.62-12.69-8.23-20.77-8.78v49.55c0,2.29,5.04.48,6.47.45,8.17-.18,24.29,1.63,30.97-2.08,5.07-2.82,13.16-13.38,15.14-18.91,1.87-5.22.46-13.29,8.84-10.8,5.14,1.53,1.84,10.71,1.71,14.33-.18,5.09.99,25.62-4.7,27.34l-94.98.18c-2.62-.95-5.48-.65-8.02-1.02-1.36-.2-3.25-.58-1.51-1.98.33-.26,6.37.12,8.36-.98,1.08-.6.44-2.15.94-2.68.73-.79,3.73-2.01,3.73-2.85v-109.62Z"/>
    <path d="M721.54,467.92c-.96-.23-1.84-1.35-.5-2.5,3.5-2.98,17.28-2.07,17.97-10.08l.04-103.02c-.42-4.95-8.7-3.22-12.26-2.29-11.28,2.94-16.36,20.24-20.26,29.81-2.33,2.13-3.59,1.05-4.6-1.43-1.69-4.17-1.35-23.64-.96-29.15.19-2.7.47-9.13,3.54-9.48,32.83-1.39,65.35.17,98.19,0,2.06.18,2.8,1.98,3.33,3.76-.8,7.56-1.1,15.19-.87,22.82.14,4.59,4.03,14.14-2.69,15.33-4.76.85-4.7-9.74-6.1-13.56-1.47-4.01-7-13.14-10.25-15.78-2.22-1.8-14.78-5.6-14.98-1.05v105.12c.6,3.48,6.01,2.59,9.26,3.76,1.57.56,6.76,4.14,6.75,5.25,0,.18-2.3,2.5-2.48,2.5h-63.11Z"/>
    <path d="M443.41,339.93c.61.92.44,8.61-.8,9.43-3.3,2.2-14.12-2.33-15.09,2.94-.71,23.08,1.47,46.05,1.05,69.12-.16,8.99-.29,21.21-1.06,29.98-2.06,23.6-32.81,40.42-54.49,31.45-8.98-3.72-14.21-13.37-11.17-22.99,3.5-11.06,23.86-11.31,24.54,3.63.29,6.4-8.65,16.88,3.61,15.5,4.6-.52,6.03-5.44,6.48-9.56,1.65-15.31-.84-31.79-1.05-47.01-.23-16.58.5-32.54,0-49.05-.18-5.89,1.2-18.21.08-22.9-.62-2.63-6.63-.78-8.3-.9-6.62-.47-7.43-3.71-6.77-9.78l62.98.14Z"/>
    <path d="M883.33,339.79c.28.28.19,6.88-.49,8.02-1.55,2.62-7.42,1.49-10.28,2.74-5.27,2.32-.61,3.36-.25,3.94,5.73,9.22,16.24,36.65,22.99,41.9.8.62,1.36,1.5,2.54,1.49l21.52-44.63c1.05-3.53-2.49-2.29-5.25-3.67-4.35-2.17-6.75-9.78-3.23-9.78h30.05c2,0,1.88,6.21.27,7.78-1.86,1.82-11.75,2.16-12.88,3.87-.72,1.08-.88,3.49-1.73,5.05-8.79,16.04-17.84,31.77-25.8,48.3l-.44,52.64c.39,3.09,4.57,2.67,7.3,3.72,6.68,2.57,9.16,6.18.27,6.83-11.75.86-30.4.82-42.17,0-2-.14-8.64-1.22-4.19-3.28s5.86-2.76,6.68-8.34c1.04-7.02.83-42.97-1.2-48.73-4.55-12.9-17.24-30.5-24.63-42.46-1.8-2.91-6.48-14.4-8.88-15.15-1.57-.5-3.58-.08-5.36-.65-4.07-1.32-4.22-5.88-3.95-9.57h59.1Z"/>
    <path d="M331.35,458.91h14.02c.42,0,1.51,6.15-.49,8.01-2.15,2-4.07,1-6.02,1h-54.1c-.71,0-2.32-2.46-2.51-3.55-1.62-9.44,8.66-5.9,13.98-5.85,1.21.01,1.3-.14,2.05-1.13l-9.59-24.43c-1.14-1.63-3.08-1.88-4.91-2.1-6.96-.83-20.62-.38-28.11-.03-2.15.1-4.37-.02-6.23,1.29l-8.1,22.47c1.24,6.61,11.23,2.95,13.93,4.75,1.85,1.23,1.16,8.57-.56,8.57h-36.06c-2.08,0-1.92-7.11-.26-8.77,2.91-2.92,10.79,1.33,14.66-4.87l44.02-108.17c.91-3.67,6.12-8.21,9.22-4.87,16.08,38.72,29.82,78.56,45.06,117.67ZM254.21,424.87c9.74.92,19.83,1.89,29.53-.03,5.35-1.06.68-3.58-.25-5.69-1.16-2.64-1.36-5.8-2.45-8.57-1.57-4-10.13-25.6-12.31-26.75-1.93-1.01-1.42,1.64-1.61,2.36-3.54,13.24-10.6,25.18-12.91,38.67Z"/>
    <path d="M673.82,375.69c-.66.44-4.29.33-5.34.11-5.09-1.06-4.29-6.38-6.03-9.99-4.97-10.28-10.32-15.86-21.25-19.8-14.99-5.4-29.06,9.01-25.89,23.87,1.29,6.06,6.59,8.07,12.03,9.99,14.92,5.29,37.62,6.45,47.06,21.05,8.22,12.72,7.89,38.29-1.44,50.49-4.93,6.45-20.49,16.92-28.56,17.5-8.75.63-11.63-1.13-18.84-4.17-6.72-2.83-12.93-5.2-16.37,3.23l-9.36-.04c.57-12.5-1.63-24.63,0-37.05,12.32-1.44,9.12,2.04,12.54,10,5.1,11.9,13.41,20.74,27.16,21.96,8.02.71,19.8-5.19,23.16-12.69,2.32-5.17,3.89-19.26-.46-23.32-13.34-12.46-44.39-7.23-56.03-26.83-8.88-14.97-8.96-32.42,1.65-46.69,5.81-7.82,20.9-15.04,30.53-14.51,7.74.43,19.21,8.45,25.56,5.49,1.27-.59,2-2.77,3.71-3.3,2.56-.78,5.75-.78,6.32,2.3.78,4.22-.21,11.32-.05,16.06.11,3.14,2.64,14.49-.1,16.33Z"/>
  </g>
</svg>